<svg width="1975" height="1557" viewBox="0 0 1975 1557" fill="none" xmlns="http://www.w3.org/2000/svg">
<path d="M944.32 309.099C944.32 309.099 945.566 310.345 946.189 310.968C952.001 316.988 958.851 321.97 966.532 325.291C966.532 325.291 966.947 325.291 966.947 325.499C970.269 326.952 974.005 327.99 977.742 329.028C978.365 329.028 978.78 329.443 979.403 329.651C983.762 330.481 988.121 331.104 992.688 331.104C997.255 331.104 1001.61 330.689 1005.97 329.651C1006.6 329.651 1007.01 329.236 1007.63 329.028C1011.37 328.198 1014.9 327.16 1018.43 325.499C1018.43 325.499 1018.84 325.499 1018.84 325.291C1026.53 321.762 1033.38 316.988 1039.19 310.968C1039.81 310.345 1040.43 309.722 1041.06 309.099L1226.02 123.307C1226.02 123.307 1227.26 122.062 1227.89 121.439C1233.91 115.627 1238.68 108.776 1242.21 101.095C1242.21 101.095 1242.21 100.68 1242.42 100.68C1243.87 97.1513 1244.91 93.6223 1245.95 89.8857C1245.95 89.2629 1246.36 88.8477 1246.36 88.2249C1247.19 83.8656 1247.82 79.5062 1247.82 74.9393C1247.82 39.234 1218.96 10.3792 1183.25 10.3792H801.499C765.794 10.3792 736.939 39.234 736.939 74.9393C736.939 93.2071 744.62 109.814 756.867 121.439C757.49 122.062 758.113 122.685 758.736 123.307C759.359 123.93 759.981 124.553 760.604 125.176L944.113 309.099H944.32Z" fill="white"/>
<path d="M339.201 637.505C332.973 630.862 325.5 625.673 316.989 621.936C316.989 621.936 316.574 621.729 316.366 621.729C312.63 620.068 308.685 618.822 304.741 617.992C304.118 617.992 303.496 617.577 302.873 617.369C298.306 616.331 293.324 615.916 288.342 615.916C283.36 615.916 278.585 616.539 273.81 617.369C273.188 617.369 272.565 617.784 271.942 617.992C267.998 619.03 264.054 620.068 260.317 621.729C260.317 621.729 259.902 621.936 259.694 621.936C251.183 625.673 243.71 631.07 237.482 637.505L32.1771 844.056C25.5343 850.284 20.3446 857.757 16.608 866.268C16.608 866.268 16.4004 866.683 16.4004 866.891C14.7397 870.627 13.4941 874.572 12.6638 878.723C12.6638 879.346 12.2486 879.969 12.041 880.592C11.0031 885.159 10.5879 890.141 10.5879 895.123C10.5879 933.942 42.1414 965.496 80.9605 965.496H496.968C535.788 965.496 567.341 933.942 567.341 895.123C567.341 875.194 559.038 857.134 545.544 844.471C544.922 843.849 544.091 843.018 543.468 842.395L339.201 637.92V637.505Z" fill="white"/>
<path d="M769.116 860.04L842.603 933.527C845.094 936.433 847.792 939.132 850.698 941.623C853.605 945.152 856.926 948.266 860.455 950.964C860.455 950.964 860.663 951.172 860.87 951.379C864.192 953.87 867.721 956.154 871.457 958.022C872.08 958.23 872.495 958.645 873.118 958.852C876.44 960.513 880.176 961.759 883.705 962.589C884.535 962.797 885.366 963.212 886.404 963.419C890.971 964.457 895.538 965.08 900.312 965.08H1235.98C1271.69 965.08 1300.54 936.225 1300.54 900.52C1300.54 895.745 1299.92 890.971 1298.88 886.612C1298.88 885.781 1298.26 884.951 1298.05 883.913C1297.01 880.176 1295.77 876.647 1294.32 873.326C1294.11 872.703 1293.69 872.288 1293.49 871.873C1291.62 868.136 1289.33 864.607 1286.84 861.286C1286.84 861.286 1286.84 861.078 1286.64 860.871C1283.73 857.342 1280.61 854.02 1277.29 851.114C1274.8 848.208 1272.1 845.509 1269.2 843.018L1228.3 802.123L484.097 58.3322L467.697 41.9327C465.206 39.0264 462.507 36.3278 459.601 33.8367C456.695 30.3077 453.373 27.1938 449.844 24.4952C449.844 24.4952 449.637 24.2876 449.429 24.08C446.108 21.5889 442.579 19.3055 438.842 17.4372C438.219 17.2296 437.804 16.8144 437.182 16.6068C433.86 14.9461 430.124 13.7006 426.594 12.8702C425.764 12.6626 424.934 12.2474 423.896 12.0399C419.329 11.0019 414.762 10.3792 409.987 10.3792H74.939C39.2337 10.3792 10.3789 39.234 10.3789 74.9393C10.3789 79.7138 11.0017 84.4884 12.0396 88.8477C12.0396 89.6781 12.6624 90.5084 12.87 91.5464C13.9079 95.283 15.1534 98.812 16.6066 102.133C16.8142 102.756 17.2293 103.171 17.4369 103.587C19.3052 107.323 21.5887 110.852 24.0798 114.174C24.0798 114.174 24.0798 114.381 24.2874 114.589C26.986 118.118 30.3074 121.439 33.6289 124.345L768.909 860.04H769.116Z" fill="url(#paint0_linear_172_4)"/>
<path d="M1950.3 126.214C1951.54 124.969 1952.99 123.723 1954.03 122.478C1960.26 116.665 1965.45 109.815 1968.98 102.134C1968.98 101.926 1969.19 101.719 1969.39 101.303C1970.85 97.7745 1972.09 94.2455 1972.92 90.5089C1972.92 89.8861 1973.34 89.2633 1973.55 88.6406C1974.38 84.2812 1975 79.7142 1975 75.1473C1975 39.442 1946.14 10.5872 1910.44 10.5872H1574.97C1570.41 10.5872 1565.84 11.2099 1561.48 12.0403C1560.86 12.0403 1560.24 12.4555 1559.41 12.663C1555.67 13.4934 1552.14 14.7389 1548.61 16.1921C1548.4 16.1921 1548.2 16.3996 1547.78 16.6072C1539.89 20.1362 1533.04 25.326 1527.44 31.5536L1144.64 414.763C1138.42 420.575 1133.23 427.426 1129.7 435.106C1129.7 435.314 1129.49 435.521 1129.28 435.937C1127.83 439.466 1126.58 442.995 1125.75 446.731C1125.75 447.354 1125.34 447.977 1125.13 448.6C1124.3 452.959 1123.68 457.526 1123.68 462.093C1123.68 466.66 1124.3 471.227 1125.13 475.586C1125.13 476.209 1125.55 476.832 1125.75 477.662C1126.58 481.399 1127.83 484.928 1129.28 488.457C1129.28 488.664 1129.7 489.079 1129.7 489.287C1133.43 497.175 1138.42 504.026 1144.85 509.838C1146.3 511.291 1147.76 512.745 1149.21 514.198C1150.66 515.651 1152.12 517.104 1153.57 518.557L1188.44 553.224L1575.81 939.755C1577.26 941.208 1578.71 942.661 1580.16 944.114C1585.98 950.342 1592.83 955.531 1600.72 959.268C1600.92 959.268 1601.34 959.683 1601.55 959.683C1605.08 961.136 1608.6 962.382 1612.34 963.212C1612.96 963.212 1613.59 963.628 1614.42 963.835C1618.78 964.665 1623.34 965.288 1627.91 965.288H1910.44C1946.14 965.288 1975 936.433 1975 900.728C1975 896.161 1974.58 891.802 1973.55 887.442C1973.55 886.82 1973.13 886.404 1973.13 885.782C1972.3 882.045 1971.26 878.516 1969.6 874.987C1969.6 874.987 1969.6 874.779 1969.39 874.572C1966.07 866.891 1961.09 860.041 1955.28 854.228C1954.03 852.775 1952.79 851.322 1951.54 849.869L1614.21 467.698C1614.21 467.698 1612.55 465.622 1611.51 464.792C1611.93 464.376 1612.34 463.961 1612.76 463.546L1950.09 126.422L1950.3 126.214Z" fill="white"/>
<path d="M602.822 1556.5L544.315 1466.08L487.258 1556.5H357.188L479.522 1385.81L361.54 1218.02H489.676L547.216 1303.13L603.306 1218.02H726.123L608.625 1381.46L733.376 1556.5H602.822Z" fill="white"/>
<path d="M333.636 1218.02V1556.5H239.831L111.212 1402.73V1556.5H0V1218.02H93.805L222.424 1371.79V1218.02H333.636Z" fill="white"/>
<path d="M1734.83 1547.24C1725.31 1547.24 1717.6 1544.28 1711.69 1538.38C1705.78 1532.47 1702.83 1524.76 1702.83 1515.24V1202.64H1848.54C1877.75 1202.64 1901.22 1209.7 1918.94 1223.81C1936.99 1237.59 1946.01 1255.97 1946.01 1278.94V1305.04C1946.01 1317.18 1943.23 1328.83 1937.65 1339.99C1932.07 1350.82 1924.35 1359.51 1914.51 1366.08V1366.57C1930.59 1370.84 1943.39 1379.21 1952.91 1391.68C1962.75 1403.82 1967.68 1418.1 1967.68 1434.5V1458.13C1967.68 1485.05 1959.14 1506.71 1942.08 1523.12C1925.01 1539.2 1901.87 1547.24 1872.67 1547.24H1734.83ZM1858.39 1358.2C1873.81 1358.2 1886.12 1353.44 1895.31 1343.93C1904.83 1334.08 1909.59 1321.12 1909.59 1305.04V1278.94C1909.59 1265.82 1903.84 1255.31 1892.36 1247.44C1881.2 1239.23 1866.59 1235.13 1848.54 1235.13H1739.26V1358.2H1858.39ZM1867.74 1514.75C1887.43 1514.75 1902.86 1509.66 1914.02 1499.49C1925.5 1488.98 1931.25 1475.2 1931.25 1458.13V1434.5C1931.25 1420.72 1926.32 1409.73 1916.48 1401.52C1906.63 1392.99 1893.67 1388.72 1877.59 1388.72H1739.26V1514.75H1867.74Z" fill="white"/>
<path d="M1466.35 1551.18C1445.34 1551.18 1426.8 1546.58 1410.72 1537.39C1394.64 1527.87 1382.17 1514.58 1373.31 1497.52C1364.44 1480.12 1360.01 1460.27 1360.01 1437.95V1202.64H1396.44V1438.94C1396.44 1462.89 1402.84 1482.26 1415.64 1497.02C1428.44 1511.46 1445.34 1518.68 1466.35 1518.68H1519.51C1540.52 1518.68 1557.42 1511.46 1570.22 1497.02C1583.02 1482.26 1589.42 1462.89 1589.42 1438.94V1202.64H1625.85V1437.95C1625.85 1460.27 1621.41 1480.12 1612.55 1497.52C1603.69 1514.58 1591.22 1527.87 1575.14 1537.39C1559.06 1546.58 1540.52 1551.18 1519.51 1551.18H1466.35Z" fill="white"/>
<path d="M1129.57 1547.24C1119.4 1547.24 1111.52 1544.45 1105.94 1538.87C1100.37 1533.29 1097.58 1525.41 1097.58 1515.24V1202.64H1134V1514.75H1321.07V1547.24H1129.57Z" fill="white"/>
<path d="M1005.93 1547.24L873.014 1382.32L829.694 1428.11V1547.24H793.265V1202.64H829.694V1382.82L997.069 1202.64H1042.36L898.121 1355.74L1051.22 1547.24H1005.93Z" fill="white"/>
<defs>
<linearGradient id="paint0_linear_172_4" x1="655.461" y1="10.3792" x2="655.461" y2="965.08" gradientUnits="userSpaceOnUse">
<stop stop-color="#FFBF00"/>
<stop offset="1" stop-color="#FF8D02"/>
</linearGradient>
</defs>
</svg>
